<svg width="16" height="16" viewBox="0 0 16 16" fill="none" xmlns="http://www.w3.org/2000/svg"><path d="M11.0742 5.57417C11.2532 5.39518 11.2532 5.10498 11.0742 4.92599C10.8952 4.747 10.605 4.747 10.426 4.92599L8.00008 7.3519L5.57417 4.92599C5.39518 4.747 5.10498 4.747 4.92599 4.92599C4.747 5.10498 4.747 5.39518 4.92599 5.57417L7.3519 8.00008L4.92599 10.426C4.747 10.605 4.747 10.8952 4.92599 11.0742C5.10498 11.2532 5.39518 11.2532 5.57417 11.0742L8.00008 8.64826L10.426 11.0742C10.605 11.2532 10.8952 11.2532 11.0742 11.0742C11.2532 10.8952 11.2532 10.605 11.0742 10.426L8.64826 8.00008L11.0742 5.57417Z" fill="#D13821"/><circle cx="8" cy="8" r="7.15" stroke="#D13821" stroke-width="1.3"/></svg>
