<svg width="86" height="86" fill="none" xmlns="http://www.w3.org/2000/svg"><g clip-path="url(#a)"><path d="M42.858 78.97c19.795 0 35.841-16.047 35.841-35.841s-16.046-35.84-35.84-35.84c-19.795 0-35.841 16.045-35.841 35.84 0 19.794 16.046 35.84 35.84 35.84z" fill="#D0E3FA"/><path d="M63.95 0H10.24C8.423 0 7.093 1.596 7.093 3.413V43h-.075c0 19.949 16.118 35.907 35.907 35.907 9.424 0 17.807-3.577 24.457-9.517V3.413c0-1.817-1.618-3.417-3.432-3.417V0z" fill="#5081DE"/><path d="M22.165 59.894a1.286 1.286 0 0 1-1.281 1.281h-.098a1.285 1.285 0 0 1-1.281-1.28V8.373a1.286 1.286 0 0 1 1.281-1.281h.098a1.286 1.286 0 0 1 1.28 1.28v51.521zm32.804 3.99a1.285 1.285 0 0 1-1.281 1.28h-.098a1.286 1.286 0 0 1-1.281-1.28V8.374a1.286 1.286 0 0 1 1.281-1.281h.098a1.286 1.286 0 0 1 1.28 1.28v55.51zm-16.402 3.103a1.285 1.285 0 0 1-1.281 1.281h-.098a1.285 1.285 0 0 1-1.281-1.281V8.374a1.285 1.285 0 0 1 1.281-1.281h.098a1.286 1.286 0 0 1 1.28 1.28v58.614z" fill="#326ECE"/><path d="M25.712 22.608a2.217 2.217 0 0 1-2.217 2.217h-5.32a2.216 2.216 0 0 1-2.216-2.217v-3.546a2.216 2.216 0 0 1 2.216-2.217h5.32a2.217 2.217 0 0 1 2.217 2.217v3.546zm32.804-2.216a2.217 2.217 0 0 1-2.217 2.216h-5.32a2.217 2.217 0 0 1-2.216-2.216v-3.547a2.217 2.217 0 0 1 2.217-2.216h5.32a2.217 2.217 0 0 1 2.216 2.216v3.547z" fill="#D0E3FA"/><path d="M42.858 62.718c-10.803 0-19.594-8.79-19.594-19.594 0-10.803 8.79-19.585 19.594-19.585 10.803 0 19.59 8.786 19.59 19.59 0 10.803-8.791 19.59-19.595 19.59h.005zm0-33.974c-7.935 0-14.385 6.45-14.385 14.385s6.45 14.385 14.385 14.385 14.385-6.455 14.385-14.385-6.454-14.385-14.385-14.385zm27.71 38.372-11.6-10.458c-1.596 2.053-2.102 2.571-4.513 4.172l10.107 11.969a4.123 4.123 0 0 0 5.83.16l.017-.014a4.123 4.123 0 0 0 .16-5.83z" fill="#fff"/><path d="M42.858 57.704c8.05 0 14.576-6.525 14.576-14.575 0-8.05-6.526-14.576-14.576-14.576s-14.575 6.526-14.575 14.576 6.526 14.575 14.575 14.575z" fill="#5081DE"/><path d="M40.784 28.721v28.815c.443.106 1.463.164 2.216.164.754 0 1.33-.058 2.217-.169V28.717c-.887-.106-1.463-.164-2.217-.164-.753 0-1.773.058-2.216.168z" fill="#326ECE"/><path d="M50.536 45.713a3.493 3.493 0 0 1-3.493 3.493h-8.529a3.493 3.493 0 0 1-3.493-3.493v-5.426a3.493 3.493 0 0 1 3.493-3.493h8.53a3.493 3.493 0 0 1 3.492 3.493v5.426z" fill="#D0E3FA"/></g><defs><clipPath id="a"><path fill="#fff" d="M0 0h86v86H0z"/></clipPath></defs></svg>