<svg xmlns="http://www.w3.org/2000/svg" width="16" height="16" fill="none"><path fill="#008CB1" d="M4.15.87A.73.73 0 0 0 2.708.631l-.356 2.16a.73.73 0 0 0 .602.84l2.16.355a.73.73 0 1 0 .238-1.44l-.656-.108a6.204 6.204 0 1 1-2.302 7.797.73.73 0 1 0-1.33.604 7.664 7.664 0 1 0 3.049-9.758L4.15.87Z"/><path fill="#008CB1" d="M4.89 5.211c0-.338.29-.613.65-.613h4.54c.36 0 .65.275.65.613 0 .339-.29.613-.65.613h-.285c.107.19.187.396.235.613h.05c.36 0 .65.275.65.613 0 .339-.29.613-.65.613h-.05c-.231 1.05-1.216 1.839-2.396 1.839h-.316l2.594 2.042a.59.59 0 0 1 .083.863.675.675 0 0 1-.913.079L5.189 9.42a.637.637 0 0 1-.076-.07.598.598 0 0 1-.223-.462c0-.339.29-.613.65-.613h2.094c.456 0 .85-.25 1.035-.613H6.188c-.358 0-.649-.274-.649-.613 0-.338.29-.613.649-.613h2.481a1.156 1.156 0 0 0-1.035-.613H5.54c-.358 0-.649-.274-.649-.613Z"/></svg>